#!OML:ASF F:\VICON\USERDATA\INSTALL\rory3\rory3.ASF
:FULLY-SPECIFIED
:DEGREES
2506
root 12.0213 18.005 -3.00657 190.206 -44.2869 185.351
lowerback 20.761 -3.8583 -0.371171
upperback 10.9359 -6.82924 -6.08752
thorax -0.39383 -3.88512 -4.85418
lowerneck -9.1996 13.2931 -0.872945
upperneck 8.84479 18.4561 -5.37863
head 4.57894 8.74318 -0.24356
rclavicle 9.54166e-015 -3.18055e-015
rhumerus -58.5653 50.6223 -93.8922
rradius 93.6179
rwrist 4.07039
rhand -39.2614 0.105043
rfingers 7.12502
rthumb -12.2557 330.484
lclavicle 9.54166e-015 -3.18055e-015
lhumerus -5.36105 -20.2536 92.122
lradius 42.507
lwrist 85.1411
lhand -31.3543 40.6182
lfingers 7.12502
lthumb -4.62526 -289.452
rfemur -27.5845 17.1666 10.7044
rtibia 36.8243
rfoot -22.7491 -14.8151
rtoes -14.9619
lfemur -34.9037 6.57523 2.57333
ltibia 28.1822
lfoot -11.789 13.8871
ltoes 0.867554
2507
root 11.9298 17.99 -2.95016 190.317 -44.0843 185.474
lowerback 20.7838 -3.68146 -0.446586
upperback 10.9249 -6.60018 -5.88737
thorax -0.367077 -3.77576 -4.64643
lowerneck -9.10836 13.1924 -0.981894
upperneck 8.72648 18.3411 -5.51228
head 4.52882 8.68283 -0.286866
rclavicle 1.00187e-013 -6.99722e-014
rhumerus -58.3686 50.5208 -94.4511
rradius 93.3208
rwrist 4.09882
rhand -39.2966 -0.288089
rfingers 7.12502
rthumb -12.2897 330.093
lclavicle 1.00187e-013 -6.99722e-014
lhumerus -4.91787 -19.4294 91.9611
lradius 42.2984
lwrist 83.9683
lhand -30.3692 40.5883
lfingers 7.12502
lthumb -3.67398 -289.464
rfemur -27.6985 17.2403 10.3301
rtibia 36.6626
rfoot -22.796 -14.6941
rtoes -14.7696
lfemur -35.0846 6.7362 2.22861
ltibia 28.2964
lfoot -11.5343 13.5693
ltoes -0.164597
2508
root 11.8344 17.9773 -2.88825 190.219 -43.7936 185.77
lowerback 21.0412 -3.66442 -0.0731949
upperback 10.8885 -6.52937 -5.95118
thorax -0.571562 -3.72903 -4.91838
lowerneck -9.1263 13.2083 -0.926049
upperneck 8.69076 18.3577 -5.5353
head 4.52817 8.69344 -0.29927
rclavicle -1.43125e-014 -1.04958e-013
rhumerus -58.3012 50.5047 -95.6084
rradius 93.0008
rwrist 4.33048
rhand -39.6224 -0.837682
rfingers 7.12502
rthumb -12.6037 329.563
lclavicle -1.43125e-014 -1.04958e-013
lhumerus -4.55744 -18.4259 91.3763
lradius 42.1101
lwrist 83.0123
lhand -29.8079 40.4234
lfingers 7.12502
lthumb -3.13192 -289.62
rfemur -27.7429 17.388 10.0757
rtibia 36.4776
rfoot -22.8045 -14.5374
rtoes -14.6411
lfemur -35.1034 6.81524 2.05327
ltibia 28.3996
lfoot -11.0114 13.0732
ltoes -2.52396
2509
root 11.7397 17.969 -2.82446 190.158 -43.465 186.069
lowerback 21.2665 -3.50178 0.0119074
upperback 10.8623 -6.30462 -5.79848
thorax -0.682901 -3.6185 -4.83577
lowerneck -9.21352 13.1497 -1.0526
upperneck 8.66595 18.3034 -5.57294
head 4.52613 8.66038 -0.292446
rclavicle -8.42847e-014 1.59028e-014
rhumerus -57.9769 50.4425 -96.2312
rradius 92.7783
rwrist 4.61335
rhand -39.8834 -1.1511
rfingers 7.12502
rthumb -12.8554 329.265
lclavicle -8.42847e-014 1.59028e-014
lhumerus -4.04684 -17.4334 91.0651
lradius 41.8331
lwrist 81.9767
lhand -29.3017 40.3865
lfingers 7.12502
lthumb -2.64311 -289.65
rfemur -27.8388 17.6062 9.80308
rtibia 36.2561
rfoot -22.6359 -14.5008
rtoes -14.9611
lfemur -35.2041 6.82458 1.95525
ltibia 28.5851
lfoot -10.1526 12.1234
ltoes -4.62943
2510
root 11.6474 17.9632 -2.75685 190.359 -43.1377 186.092
lowerback 21.479 -3.31921 -0.0138004
upperback 10.7958 -6.0852 -5.81584
thorax -0.840866 -3.51266 -4.87185
lowerneck -9.14161 13.111 -0.810649
upperneck 8.55351 18.2266 -5.67907
head 4.50941 8.6317 -0.368068
rclavicle 5.56597e-014 8.42847e-014
rhumerus -57.6221 50.1315 -97.1002
rradius 92.6597
rwrist 4.78206
rhand -40.0665 -1.76797
rfingers 7.12502
rthumb -13.0319 328.659
lclavicle 5.56597e-014 8.42847e-014
lhumerus -3.56768 -16.6898 90.5248
lradius 41.5939
lwrist 80.9432
lhand -28.4533 40.6656
lfingers 7.12502
lthumb -1.8237 -289.362
rfemur -28.0178 17.7006 9.29404
rtibia 35.9993
rfoot -22.3685 -14.4532
rtoes -15.374
lfemur -35.4862 6.60977 1.78013
ltibia 28.8922
lfoot -8.72332 10.7891
ltoes -4.94965
2511
root 11.5567 17.9521 -2.6862 190.448 -42.857 186.375
lowerback 21.6591 -3.14109 -0.0561382
upperback 10.7312 -5.85267 -5.63008
thorax -0.957705 -3.39997 -4.68643
lowerneck -9.20283 13.0941 -0.648141
upperneck 8.55637 18.2222 -5.98769
head 4.56481 8.61461 -0.470334
rclavicle 5.88403e-014 3.02153e-014
rhumerus -57.1547 50.0857 -97.7421
rradius 92.6376
rwrist 4.89607
rhand -39.9651 -2.61368
rfingers 7.12502
rthumb -12.9342 327.807
lclavicle 5.88403e-014 3.02153e-014
lhumerus -2.86272 -15.7229 90.1382
lradius 41.2542
lwrist 79.7804
lhand -27.713 41.1882
lfingers 7.12502
lthumb -1.10876 -288.835
rfemur -28.272 17.8353 8.9829
rtibia 35.7166
rfoot -22.0306 -14.5844
rtoes -16.0042
lfemur -35.9219 6.2716 1.93956
ltibia 29.3143
lfoot -7.21161 9.53588
ltoes -3.88236
